REM DIRINDEX 1\2,1\3,1\4,1\6,1\5\7,1\5\8
REM DIRNAME cjc114,folder01,folder02,folder03,folder04,folder05,folder06,folder07
TITLE ""
FILE "DB4500_5th_3B_02.mp3" MP3
  TRACK 01 AUDIO
    TITLE "0:"
    INDEX 01 00:00:00
  TRACK 02 AUDIO
    TITLE "2:cjc114_1667"
    INDEX 01 00:00:03
  TRACK 03 AUDIO
    TITLE "0:"
    INDEX 01 00:01:34
  TRACK 04 AUDIO
    TITLE "3:cjc114_1668"
    INDEX 01 00:01:58
  TRACK 05 AUDIO
    TITLE "0:"
    INDEX 01 00:02:61
  TRACK 06 AUDIO
    TITLE "4:cjc114_1669"
    INDEX 01 00:03:12
  TRACK 07 AUDIO
    TITLE "0:"
    INDEX 01 00:06:02
  TRACK 08 AUDIO
    TITLE "2:cjc114_1670"
    INDEX 01 00:06:51
  TRACK 09 AUDIO
    TITLE "0:"
    INDEX 01 00:07:54
  TRACK 10 AUDIO
    TITLE "3:cjc114_1671"
    INDEX 01 00:08:07
  TRACK 11 AUDIO
    TITLE "0:"
    INDEX 01 00:09:10
  TRACK 12 AUDIO
    TITLE "4:cjc114_1672"
    INDEX 01 00:09:36
  TRACK 13 AUDIO
    TITLE "0:"
    INDEX 01 00:12:30
  TRACK 14 AUDIO
    TITLE "2:cjc114_1673"
    INDEX 01 00:13:04
  TRACK 15 AUDIO
    TITLE "0:"
    INDEX 01 00:14:15
  TRACK 16 AUDIO
    TITLE "3:cjc114_1674"
    INDEX 01 00:14:41
  TRACK 17 AUDIO
    TITLE "0:"
    INDEX 01 00:15:38
  TRACK 18 AUDIO
    TITLE "4:cjc114_1675"
    INDEX 01 00:15:60
  TRACK 19 AUDIO
    TITLE "0:"
    INDEX 01 00:19:15
  TRACK 20 AUDIO
    TITLE "2:cjc114_1676"
    INDEX 01 00:19:56
  TRACK 21 AUDIO
    TITLE "0:"
    INDEX 01 00:20:65
  TRACK 22 AUDIO
    TITLE "3:cjc114_1677"
    INDEX 01 00:21:15
  TRACK 23 AUDIO
    TITLE "0:"
    INDEX 01 00:22:30
  TRACK 24 AUDIO
    TITLE "4:cjc114_1678"
    INDEX 01 00:22:58
  TRACK 25 AUDIO
    TITLE "0:"
    INDEX 01 00:25:17
  TRACK 26 AUDIO
    TITLE "2:cjc114_1679"
    INDEX 01 00:25:68
  TRACK 27 AUDIO
    TITLE "0:"
    INDEX 01 00:26:73
  TRACK 28 AUDIO
    TITLE "3:cjc114_1680"
    INDEX 01 00:27:26
  TRACK 29 AUDIO
    TITLE "0:"
    INDEX 01 00:28:47
  TRACK 30 AUDIO
    TITLE "4:cjc114_1681"
    INDEX 01 00:28:72
  TRACK 31 AUDIO
    TITLE "0:"
    INDEX 01 00:32:31
  TRACK 32 AUDIO
    TITLE "2:cjc114_1682"
    INDEX 01 00:33:05
  TRACK 33 AUDIO
    TITLE "0:"
    INDEX 01 00:34:12
  TRACK 34 AUDIO
    TITLE "3:cjc114_1683"
    INDEX 01 00:34:38
  TRACK 35 AUDIO
    TITLE "0:"
    INDEX 01 00:35:57
  TRACK 36 AUDIO
    TITLE "4:cjc114_1684"
    INDEX 01 00:36:07
  TRACK 37 AUDIO
    TITLE "0:"
    INDEX 01 00:38:14
  TRACK 38 AUDIO
    TITLE "2:cjc114_1685"
    INDEX 01 00:38:63
  TRACK 39 AUDIO
    TITLE "0:"
    INDEX 01 00:39:62
  TRACK 40 AUDIO
    TITLE "3:cjc114_1686"
    INDEX 01 00:40:13
  TRACK 41 AUDIO
    TITLE "0:"
    INDEX 01 00:41:20
  TRACK 42 AUDIO
    TITLE "4:cjc114_1687"
    INDEX 01 00:41:45
  TRACK 43 AUDIO
    TITLE "0:"
    INDEX 01 00:45:30
  TRACK 44 AUDIO
    TITLE "2:cjc114_1688"
    INDEX 01 00:46:06
  TRACK 45 AUDIO
    TITLE "0:"
    INDEX 01 00:46:74
  TRACK 46 AUDIO
    TITLE "3:cjc114_1689"
    INDEX 01 00:47:27
  TRACK 47 AUDIO
    TITLE "0:"
    INDEX 01 00:48:16
  TRACK 48 AUDIO
    TITLE "4:cjc114_1690"
    INDEX 01 00:48:44
  TRACK 49 AUDIO
    TITLE "0:"
    INDEX 01 00:50:48
  TRACK 50 AUDIO
    TITLE "2:cjc114_1691"
    INDEX 01 00:51:20
  TRACK 51 AUDIO
    TITLE "0:"
    INDEX 01 00:52:16
  TRACK 52 AUDIO
    TITLE "3:cjc114_1692"
    INDEX 01 00:52:43
  TRACK 53 AUDIO
    TITLE "0:"
    INDEX 01 00:53:45
  TRACK 54 AUDIO
    TITLE "4:cjc114_1693"
    INDEX 01 00:53:70
  TRACK 55 AUDIO
    TITLE "0:"
    INDEX 01 00:57:46
  TRACK 56 AUDIO
    TITLE "2:cjc114_1694"
    INDEX 01 00:58:20
  TRACK 57 AUDIO
    TITLE "0:"
    INDEX 01 00:59:20
  TRACK 58 AUDIO
    TITLE "3:cjc114_1695"
    INDEX 01 00:59:45
  TRACK 59 AUDIO
    TITLE "0:"
    INDEX 01 01:01:21
  TRACK 60 AUDIO
    TITLE "4:cjc114_1696"
    INDEX 01 01:01:44
  TRACK 61 AUDIO
    TITLE "0:"
    INDEX 01 01:04:68
  TRACK 62 AUDIO
    TITLE "2:cjc114_1697"
    INDEX 01 01:05:42
  TRACK 63 AUDIO
    TITLE "0:"
    INDEX 01 01:06:42
  TRACK 64 AUDIO
    TITLE "3:cjc114_1698"
    INDEX 01 01:06:63
  TRACK 65 AUDIO
    TITLE "0:"
    INDEX 01 01:07:70
  TRACK 66 AUDIO
    TITLE "4:cjc114_1699"
    INDEX 01 01:08:23
  TRACK 67 AUDIO
    TITLE "0:"
    INDEX 01 01:12:32
  TRACK 68 AUDIO
    TITLE "2:cjc114_1700"
    INDEX 01 01:13:04
  TRACK 69 AUDIO
    TITLE "0:"
    INDEX 01 01:14:06
  TRACK 70 AUDIO
    TITLE "3:cjc114_1701"
    INDEX 01 01:14:33
  TRACK 71 AUDIO
    TITLE "0:"
    INDEX 01 01:15:72
  TRACK 72 AUDIO
    TITLE "4:cjc114_1702"
    INDEX 01 01:16:22
  TRACK 73 AUDIO
    TITLE "0:"
    INDEX 01 01:18:06
